<svg width="140" height="59" viewBox="0 0 140 59" fill="none" xmlns="http://www.w3.org/2000/svg">
<g clip-path="url(#clip0_0_247)">
<path d="M15.1066 47.1261C14.4741 47.1261 13.3697 46.9521 11.0815 45.4467C9.94769 44.7007 8.83895 43.8279 8.46003 43.4475C8.12535 43.1098 7.23335 42.2119 4.54407 34.5997C3.3336 31.1732 1.95357 26.868 1.78402 25.516C1.63068 24.2937 2.2514 20.6402 2.52563 19.126C3.46334 13.9435 4.00297 13.1238 4.17989 12.8554C4.54112 12.307 4.8817 11.7895 14.9105 6.70136C19.6727 4.28484 24.4085 1.97153 24.4556 1.94794C24.7004 1.82852 24.9673 1.76807 25.2326 1.76807C25.5216 1.76807 25.8106 1.83884 26.0716 1.98038C26.5729 2.25019 26.9149 2.74706 26.9872 3.31175L28.2168 12.854C28.32 13.6575 27.8659 14.4271 27.1125 14.725C23.571 16.1256 17.9492 18.3623 16.6222 18.9225C16.3362 19.3516 15.7966 20.4102 15.31 21.4968C15.3616 21.7563 15.4147 22.0187 15.4678 22.2812C15.6388 22.0468 15.8703 21.8507 16.149 21.7209C16.4202 21.5941 22.8707 18.5938 29.3108 16.8496C29.4641 16.8083 29.6189 16.7876 29.7737 16.7876C30.2382 16.7876 30.6893 16.9705 31.027 17.3066C31.4752 17.7563 31.6477 18.4109 31.4811 19.0228C29.2223 27.2897 29.5452 41.6001 29.5482 41.7431C29.5644 42.4287 29.184 43.0627 28.5707 43.3693C28.2728 43.5182 21.2046 47.0214 15.1537 47.1231H15.1051L15.1066 47.1261ZM17.5408 31.244C17.8607 31.2735 18.3517 31.3015 19.0889 31.3089L19.1596 29.9082L19.0152 29.9804C18.7675 30.1043 18.4976 30.1662 18.2264 30.1662C17.9772 30.1662 17.7265 30.1131 17.4936 30.007C17.3668 29.9495 17.2503 29.8787 17.1427 29.7947C17.2931 30.3888 17.4287 30.8828 17.5422 31.2425L17.5408 31.244Z" fill="white"/>
<path d="M25.2372 3.53901L26.4668 13.0812C26.4668 13.0812 16.2095 17.1387 15.6021 17.4425C14.9946 17.7462 13.4716 21.2965 13.4716 21.2965C13.4716 21.2965 15.6478 32.3736 16.2994 32.7805C16.7049 33.0326 18.3311 33.0798 19.5062 33.0798C20.2243 33.0798 20.7742 33.0621 20.7742 33.0621L21.0779 26.9773L18.2265 28.3972L16.9025 23.3253C16.9025 23.3253 23.4104 20.2821 29.7768 18.5586C27.4207 27.1793 27.782 41.789 27.782 41.789C27.782 41.789 20.845 45.2612 15.1273 45.357C15.1214 45.357 15.114 45.357 15.1081 45.357C13.6544 45.357 10.2206 42.7061 9.71926 42.2018C8.35251 40.8247 3.80255 27.371 3.54306 25.298C3.36761 23.8959 4.9511 14.908 5.66175 13.8302C6.37241 12.7524 25.2357 3.54049 25.2357 3.54049M25.2372 0.000488281C24.7064 0.000488281 24.1756 0.119914 23.6846 0.358764C23.6375 0.382354 18.8885 2.70156 14.1159 5.12398C11.2969 6.55413 9.0145 7.74249 7.33223 8.6566C3.97653 10.4804 3.26588 11.0348 2.70856 11.8826C2.38862 12.3676 1.79297 13.2729 0.790384 18.8107C0.151975 22.3301 -0.103094 24.6596 0.0325495 25.7359C0.29499 27.8325 2.61567 34.4421 2.87959 35.1896C5.70156 43.1779 6.68203 44.1642 7.20838 44.695C7.73031 45.2199 8.97764 46.1797 10.1114 46.9243C12.183 48.2866 13.7237 48.8955 15.1081 48.8955C15.1332 48.8955 15.1583 48.8955 15.1833 48.8955C21.6352 48.7879 29.0529 45.1108 29.3654 44.9545C30.5921 44.3412 31.3529 43.0732 31.319 41.702C31.3161 41.5619 30.9991 27.5037 33.19 19.4919C33.5247 18.2681 33.1782 16.9589 32.2818 16.0595C31.6095 15.3857 30.7042 15.0201 29.7768 15.0201C29.6559 15.0201 29.535 15.0259 29.4141 15.0392C29.8726 14.3477 30.0879 13.4985 29.9758 12.6301L28.7462 3.08785C28.6002 1.957 27.9191 0.966211 26.915 0.425111C26.3916 0.143504 25.8151 0.00196267 25.2372 0.00196267V0.000488281Z" fill="#181818"/>
<path d="M44.6201 44.8717C43.6101 44.8717 36.1026 43.0789 31.8799 41.6708C31.6337 41.5882 31.4081 41.4541 31.2209 41.2757C27.7045 37.9347 26.0753 31.788 29.9854 26.9771C30.8154 25.9568 31.8092 25.1267 32.9282 24.5075C32.856 24.5163 32.7837 24.5208 32.7115 24.5208C32.2294 24.5208 31.759 24.3247 31.4199 23.962C30.954 23.4651 30.814 22.7441 31.0617 22.1101C31.1265 21.945 32.651 18.0379 33.8777 15.3987C34.1505 14.8105 34.724 14.4198 35.3698 14.3785C36.0451 14.3357 36.8811 14.3136 37.8541 14.3136C42.1594 14.3136 47.9404 14.7235 48.1837 14.7412C49.1096 14.8075 49.8262 15.5771 49.8262 16.506V24.1964C49.8262 24.2274 49.8262 24.2598 49.8232 24.2908L48.8766 41.8846C48.8472 42.4301 48.567 42.9314 48.1188 43.2425C45.7701 44.8717 44.9341 44.8717 44.6186 44.8717H44.6201ZM37.0123 34.0365C37.8615 34.2311 38.9555 34.3726 39.9581 34.4611C40.0009 33.053 40.0628 30.9653 40.1321 28.68C39.9257 29.0678 39.7016 29.488 39.4612 29.9391C39.1722 30.4802 38.6223 30.8341 38.0104 30.8724C37.7067 30.8916 37.5652 30.9977 37.4428 31.1526C37.1214 31.5624 36.8737 32.5134 37.0123 34.0365Z" fill="white"/>
<path d="M37.8552 16.0814C42.1471 16.0814 48.0579 16.5045 48.0579 16.5045V24.1949L47.1114 41.7887C47.1114 41.7887 45.2182 43.1024 44.6196 43.1024C44.021 43.1024 36.9012 41.4791 32.4383 39.9915C29.7342 37.4216 27.9502 32.2819 31.3561 28.0917C33.5116 25.4393 36.4044 24.9527 38.2385 24.9527C39.303 24.9527 40.0107 25.1164 40.0107 25.1164C40.0107 25.1164 39.1998 26.6719 37.9009 29.1061C35.7232 29.2417 34.7368 31.6081 35.4136 35.3943C37.3745 36.2053 41.6723 36.3409 41.6723 36.3409C41.6723 36.3409 41.9053 28.4972 42.0984 22.3446C41.0737 21.9465 39.8869 21.8035 38.7088 21.8035C35.679 21.8035 32.7096 22.75 32.7096 22.75C32.7096 22.75 34.265 18.7603 35.4814 16.1418C36.1611 16.0991 36.9735 16.0814 37.8552 16.0814ZM37.8552 12.5428C36.8437 12.5428 35.9694 12.5664 35.2588 12.6107C33.9657 12.6932 32.8201 13.4747 32.2731 14.6512C31.0229 17.3405 29.4777 21.2977 29.4128 21.4658C28.9971 22.5333 29.1224 23.7216 29.7254 24.6652C29.3317 25.0353 28.9587 25.4334 28.6122 25.861C26.4375 28.537 25.5514 31.8676 26.1176 35.2381C26.5791 37.9834 27.9945 40.652 30.0026 42.5584C30.3786 42.9152 30.8282 43.1865 31.3207 43.3501C34.0468 44.2583 37.3878 45.1135 39.1364 45.5425C43.6185 46.641 44.3203 46.641 44.6211 46.641C45.5824 46.641 46.5349 46.3048 47.909 45.4806C48.54 45.1032 49.0708 44.736 49.1283 44.6962C50.0262 44.0726 50.5865 43.07 50.644 41.9789L51.5905 24.3851C51.5935 24.3217 51.595 24.2583 51.595 24.1949V16.5045C51.595 14.6483 50.1604 13.1075 48.3086 12.9748C48.0623 12.9571 42.2208 12.5428 37.8537 12.5428H37.8552Z" fill="#181818"/>
<path d="M75.0793 46.6227C74.5751 46.6227 74.0886 46.4222 73.7539 46.0345C73.3514 45.5671 73.2128 44.9537 73.403 44.3684C73.431 44.2519 73.5873 43.5737 74.0089 41.1734C74.4159 38.8571 75.7369 28.647 76.2176 24.9139L75.302 24.5586C74.5368 25.3739 73.8011 26.1819 73.4457 26.6094C73.3528 27.6223 73.0771 30.4001 72.2677 38.2807C72.2279 38.6655 72.0642 39.0267 71.7988 39.3098C67.7693 43.612 66.9614 43.612 66.3127 43.612C65.6153 43.612 64.9798 43.2331 64.654 42.6242C64.3385 42.0345 62.3731 37.9091 62.149 37.4403C62.0192 37.169 61.9617 36.8682 61.9809 36.5674L62.7019 25.1704L62.2492 23.9202C61.5312 24.1811 60.6717 24.504 59.8696 24.8343C60.2087 30.9014 61.3115 40.5674 61.3233 40.6706C61.3985 41.3312 61.0978 41.9769 60.5449 42.3455C60.3915 42.4473 56.769 44.8505 53.7435 46.4222C53.4885 46.5549 53.2083 46.6213 52.9282 46.6213C52.7232 46.6213 52.5168 46.5859 52.3207 46.5136C51.8548 46.3426 51.4818 45.9843 51.2931 45.5243C48.5861 38.9412 48.7321 24.2386 48.9975 19.6076C49.0314 19.0237 49.3513 18.4929 49.8526 18.1922C51.4317 17.2441 60.6422 13.3739 64.8486 11.8272C65.0491 11.7535 65.2555 11.7181 65.459 11.7181C66.1401 11.7181 66.7845 12.1133 67.0764 12.7694L69.4339 18.0698C69.7848 17.6584 70.1652 17.2176 70.5559 16.7753C73.5858 13.3547 74.6665 12.7281 75.7045 12.7281C75.8269 12.7281 75.9507 12.7399 76.0701 12.7605C77.1803 12.9625 80.8103 14.8173 81.8954 15.382C86.9939 18.0315 87.2224 18.6315 87.445 19.2139C87.6249 19.6872 87.8121 20.1782 86.9113 28.6028C86.4056 33.3371 85.7406 38.7304 85.1759 42.6773C85.1052 43.1756 84.825 43.6194 84.4063 43.8995C82.177 45.3857 76.5183 46.406 75.4052 46.5962C75.2976 46.6139 75.1885 46.6242 75.0808 46.6242L75.0793 46.6227Z" fill="white"/>
<path d="M65.4582 13.4858L68.9761 21.3973C68.9761 21.3973 74.4741 14.4957 75.7023 14.4957C75.72 14.4957 75.7362 14.4957 75.7524 14.5002C76.8715 14.7036 85.4878 19.0516 85.79 19.8419C86.0908 20.6321 84.5736 34.3793 83.4236 42.425C81.3949 43.777 75.1066 44.8504 75.1066 44.8504C75.1066 44.8504 75.2423 44.386 75.7524 41.4785C76.264 38.571 78.1483 23.7637 78.1483 23.7637L74.8353 22.4795C74.8353 22.4795 71.7244 25.7247 71.7244 25.996C71.7244 26.2672 70.508 38.0992 70.508 38.0992C70.508 38.0992 67.0034 41.8412 66.3134 41.8412C66.2677 41.8412 66.2338 41.8249 66.2146 41.7881C65.9094 41.219 63.7479 36.6779 63.7479 36.6779L64.491 24.9123L63.3174 21.6672C63.3174 21.6672 60.0974 22.7494 58.0435 23.6959C58.2898 29.7144 59.5666 40.8696 59.5666 40.8696C59.5666 40.8696 55.9042 43.3038 52.9289 44.8489C50.5625 39.0914 50.4269 25.5875 50.763 19.7062C52.1136 18.8953 61.0424 15.1091 65.4582 13.4858ZM65.4582 9.94727C65.0528 9.94727 64.6399 10.018 64.2389 10.1655C60.2419 11.634 50.7291 15.6001 48.9422 16.6749C47.9396 17.2779 47.2982 18.338 47.2319 19.5057C47.0653 22.4309 46.996 27.3907 47.3012 32.5363C47.6668 38.6889 48.46 43.2846 49.6572 46.1965C50.0347 47.115 50.7807 47.8331 51.714 48.1737C52.1077 48.3181 52.519 48.3889 52.9304 48.3889C53.4921 48.3889 54.0524 48.2547 54.5625 47.9908C57.6705 46.3764 61.3712 43.9215 61.5275 43.8183C62.0082 43.4984 62.393 43.0738 62.6628 42.5887C62.8633 43 63.0211 43.3156 63.0977 43.4586C63.7317 44.644 64.9658 45.3812 66.3163 45.3812C67.9146 45.3812 69.0955 44.4951 71.139 42.5091C71.5047 42.1537 71.8571 41.7999 72.1608 41.4903C71.8718 43.1047 71.7406 43.7195 71.7008 43.8965C71.3042 45.0686 71.5769 46.2776 72.3775 47.2241C73.0395 48.007 74.0185 48.3963 75.0299 48.3963C75.254 48.3963 75.4796 48.3771 75.7052 48.3388C75.7745 48.327 77.414 48.0454 79.3322 47.5869C83.1553 46.6713 84.6208 45.8839 85.3905 45.3708C86.2279 44.8121 86.7882 43.923 86.9312 42.9278C87.4973 38.9602 88.1652 33.5433 88.6739 28.7914C88.929 26.4014 89.1265 24.3461 89.2415 22.8481C89.445 20.2149 89.4185 19.4187 89.1015 18.5857C88.6444 17.3855 87.7259 16.6631 86.0805 15.6738C84.9673 15.0044 83.6345 14.2923 82.7144 13.8146C81.5054 13.1865 80.2729 12.5776 79.2408 12.1013C77.5762 11.3317 76.9142 11.1179 76.3879 11.0221C76.1637 10.9823 75.9352 10.9616 75.7067 10.9616H75.7037C74.0362 10.9616 72.6178 11.8876 69.93 14.829L68.6945 12.0512C68.1107 10.7405 66.822 9.95021 65.4612 9.95021L65.4582 9.94727Z" fill="#181818"/>
<path d="M86.6052 45.2776C86.154 45.2776 85.7176 45.1051 85.3859 44.7896C84.9863 44.4092 84.7873 43.8651 84.8463 43.3167C85.8945 33.6904 85.8827 18.7269 85.3387 9.53407C85.2915 8.74233 85.7781 8.01693 86.5271 7.75744L94.1629 5.12124C94.3516 5.05636 94.5462 5.02393 94.7409 5.02393C95.1257 5.02393 95.5061 5.14925 95.8201 5.39105C96.2919 5.75375 96.5499 6.32876 96.5057 6.92146L95.7302 17.5945L99.8422 14.6959C100.147 14.4806 100.504 14.373 100.863 14.373C101.166 14.373 101.471 14.4511 101.746 14.6089C101.825 14.6546 103.711 15.7442 105.642 17.2215C108.625 19.5024 110.06 21.4014 110.156 23.1972C110.279 25.5385 108.933 29.9985 108.518 31.3107C107.836 33.4604 106.492 37.2525 105.15 38.5116C103.651 39.9182 99.2333 41.6683 97.9167 42.1696C95.6859 43.0203 91.2864 44.5537 86.8868 45.2555C86.7939 45.2702 86.701 45.2776 86.6081 45.2776H86.6052Z" fill="white"/>
<path d="M94.7421 6.79293L93.6953 21.1947L100.862 16.142C100.862 16.142 108.233 20.3838 108.388 23.2913C108.542 26.1988 105.561 35.6983 103.939 37.2198C102.316 38.7414 93.5935 42.392 86.6064 43.5081C87.7328 33.1623 87.6105 17.9496 87.1062 9.4306L94.7421 6.79293ZM94.7421 3.2544C94.3543 3.2544 93.9636 3.3178 93.5876 3.44755L85.9518 6.08522C84.4523 6.60273 83.4807 8.055 83.5751 9.63849C84.1147 18.759 84.128 33.5943 83.09 43.1247C82.9706 44.2217 83.3701 45.3112 84.1693 46.072C84.8327 46.7031 85.707 47.0466 86.6079 47.0466C86.7937 47.0466 86.9794 47.0319 87.1652 47.0024C91.7225 46.2755 96.2518 44.6979 98.546 43.8221C100.765 42.9758 104.731 41.3275 106.359 39.8015C107.127 39.0805 107.813 37.9806 108.579 36.2335C109.122 34.9964 109.683 33.4793 110.202 31.8442C110.764 30.072 112.057 25.671 111.92 23.1026C111.795 20.7509 110.141 18.4347 106.716 15.8147C104.693 14.2681 102.71 13.1225 102.627 13.0738C102.079 12.7583 101.47 12.602 100.862 12.602C100.146 12.602 99.4321 12.8187 98.8232 13.2493L97.766 13.9938L98.2703 7.048C98.3558 5.86112 97.8412 4.7111 96.8976 3.9857C96.271 3.50358 95.5102 3.25293 94.7406 3.25293L94.7421 3.2544Z" fill="#181818"/>
<path d="M109.487 47.3736C109.076 47.3736 108.667 47.2306 108.34 46.9519C107.786 46.4801 107.578 45.7164 107.815 45.0278C107.828 44.991 109.086 41.3183 109.607 37.6486C110.111 34.0923 109.275 23.3898 108.827 17.6382L108.772 16.9379C108.697 15.978 109.405 15.1347 110.363 15.0403L117.057 14.3827C117.114 14.3769 117.172 14.3739 117.229 14.3739C117.655 14.3739 118.068 14.5272 118.392 14.8103C118.759 15.1303 118.979 15.5888 118.997 16.0753L119.943 40.8716C119.968 41.5468 119.607 42.1779 119.013 42.4978L110.323 47.1628C110.061 47.3043 109.772 47.3736 109.487 47.3736Z" fill="white"/>
<path d="M117.23 16.1417L118.176 40.9379L109.486 45.6028C109.486 45.6028 110.806 41.7871 111.357 37.8948C111.908 34.0024 111.008 22.884 110.534 16.7993L117.228 16.1417M117.23 12.6031C117.115 12.6031 117 12.609 116.883 12.6208L110.189 13.2784C108.273 13.4671 106.859 15.1538 107.008 17.075L107.062 17.7812C107.474 23.058 108.33 34.0378 107.854 37.4008C107.36 40.8907 106.154 44.416 106.142 44.4513C105.667 45.8284 106.086 47.3559 107.195 48.2995C107.85 48.8568 108.666 49.1428 109.489 49.1428C110.061 49.1428 110.635 49.0043 111.161 48.7226L119.851 44.0577C121.042 43.4178 121.765 42.1557 121.713 40.8052L120.767 16.009C120.73 15.0344 120.292 14.1188 119.556 13.4775C118.909 12.9128 118.082 12.6061 117.23 12.6061V12.6031Z" fill="#181818"/>
<path d="M127.597 40.5386C125.383 40.5386 123.249 40.1052 121.256 39.2515C120.426 38.8962 119.997 37.9732 120.261 37.1092C121.591 32.7421 121.812 27.0583 121.829 24.1818L120.121 24.3101C120.076 24.313 120.032 24.3145 119.988 24.3145C119.531 24.3145 119.089 24.1376 118.757 23.8161C118.394 23.4638 118.198 22.9743 118.22 22.4686L118.45 17.1269C118.483 16.3882 118.971 15.7468 119.674 15.5198L121.838 14.8209C121.956 13.1092 122.148 9.63404 122.148 5.30524C122.148 4.39702 122.836 3.63624 123.74 3.54483C124.632 3.45489 127.235 3.13347 128.536 2.73244C128.707 2.67936 128.883 2.6543 129.057 2.6543C129.418 2.6543 129.775 2.76488 130.076 2.97719C130.524 3.29271 130.8 3.79842 130.825 4.34542C130.915 6.36532 131.065 10.268 131.155 12.6433L134.73 12.0786C134.822 12.0638 134.915 12.0565 135.006 12.0565C135.466 12.0565 135.913 12.2363 136.246 12.5651C136.646 12.9588 136.836 13.5176 136.758 14.0734L136.015 19.3443C135.92 20.0093 135.459 20.5637 134.822 20.776L130.974 22.0587C130.978 23.6923 130.947 26.6101 130.716 29.4468C132.343 29.0561 134.381 28.3941 135.681 27.9164C135.879 27.8442 136.085 27.8088 136.29 27.8088C136.674 27.8088 137.051 27.9326 137.365 28.1715C137.846 28.5386 138.105 29.1254 138.054 29.7284L137.445 36.8276C137.396 37.3923 137.081 37.8995 136.594 38.1929C136.435 38.2887 132.643 40.5372 127.596 40.5372L127.597 40.5386Z" fill="white"/>
<path d="M129.057 4.42634C129.193 7.46947 129.462 14.7043 129.462 14.7043L135.008 13.8285L134.265 19.098L129.194 20.7891C129.194 20.7891 129.33 26.9417 128.721 31.5403C130.952 31.5403 136.293 29.5794 136.293 29.5794L135.684 36.6785C135.684 36.6785 132.212 38.7692 127.599 38.7692C125.84 38.7692 123.914 38.4655 121.953 37.6251C123.91 31.2012 123.581 22.2767 123.581 22.2767L119.99 22.5465L120.22 17.2048L123.513 16.1403C123.513 16.1403 123.919 11.6597 123.919 5.30655C123.919 5.30655 127.3 4.96597 129.057 4.42487M129.057 0.887817C128.708 0.887817 128.358 0.939421 128.016 1.0441C126.985 1.3611 124.737 1.66777 123.562 1.78719C121.754 1.97002 120.379 3.49158 120.379 5.30803C120.379 8.74482 120.255 11.6346 120.147 13.51L119.13 13.8388C117.722 14.2929 116.746 15.5756 116.682 17.053L116.452 22.3947C116.408 23.4046 116.799 24.3851 117.526 25.0884C118.188 25.7297 119.072 26.0851 119.987 26.0851C119.998 26.0851 120.009 26.0851 120.02 26.0851C119.919 29.0471 119.584 33.2535 118.567 36.5945C118.04 38.321 118.898 40.1669 120.559 40.8776C122.773 41.8271 125.143 42.3077 127.597 42.3077C133.036 42.3077 137.066 39.9753 137.508 39.7099C138.48 39.1245 139.112 38.1102 139.208 36.9808L139.817 29.8816C139.92 28.6756 139.401 27.5019 138.439 26.7677C137.812 26.29 137.056 26.0408 136.29 26.0408C135.88 26.0408 135.468 26.1116 135.071 26.2576C134.322 26.5318 133.473 26.8164 132.637 27.0744C132.702 25.6973 132.728 24.3984 132.739 23.3368L135.382 22.4551C136.656 22.0305 137.579 20.9218 137.766 19.5933L138.509 14.3239C138.666 13.2137 138.287 12.0931 137.488 11.3073C136.821 10.6512 135.928 10.2914 135.006 10.2914C134.823 10.2914 134.639 10.3062 134.455 10.3342L132.846 10.5878C132.761 8.38507 132.659 5.79457 132.591 4.27006C132.542 3.17606 131.99 2.16611 131.095 1.53507C130.492 1.10898 129.778 0.889292 129.056 0.889292L129.057 0.887817Z" fill="#181818"/>
<path d="M35.4817 16.1415C34.2653 18.76 32.7099 22.7497 32.7099 22.7497C32.7099 22.7497 38.4378 20.9244 42.0987 22.3442C41.9056 28.4969 41.6726 36.3406 41.6726 36.3406C41.6726 36.3406 37.3748 36.2049 35.4139 35.394C34.7371 31.6078 35.7235 29.2414 37.9012 29.1058C39.2001 26.6716 40.011 25.1161 40.011 25.1161C40.011 25.1161 34.7622 23.8997 31.3564 28.0914C27.9505 32.2816 29.7331 37.4228 32.4386 39.9912C36.9015 41.4788 44.0228 43.1021 44.6199 43.1021C45.2171 43.1021 47.1116 41.7884 47.1116 41.7884L48.0582 24.1946V16.5042C48.0582 16.5042 39.4714 15.8894 35.4817 16.1415Z" fill="white"/>
<path d="M37.854 16.081C42.1459 16.081 48.0567 16.5041 48.0567 16.5041V24.1945L47.1102 41.7883C47.1102 41.7883 45.217 43.102 44.6184 43.102C44.0198 43.102 36.9 41.4787 32.4371 39.9911C29.733 37.4212 27.949 32.2815 31.3549 28.0913C33.5104 25.4389 36.4032 24.9523 38.2373 24.9523C39.3018 24.9523 40.0095 25.116 40.0095 25.116C40.0095 25.116 39.1986 26.6715 37.8997 29.1057C35.722 29.2413 34.7356 31.6077 35.4124 35.3939C37.3733 36.2048 41.6711 36.3405 41.6711 36.3405C41.6711 36.3405 41.9041 28.4968 42.0972 22.3442C41.0725 21.9461 39.8857 21.8031 38.7076 21.8031C35.6778 21.8031 32.7084 22.7496 32.7084 22.7496C32.7084 22.7496 34.2638 18.7599 35.4802 16.1414C36.1599 16.0987 36.9723 16.081 37.854 16.081ZM37.854 15.4912C36.9045 15.4912 36.0935 15.5119 35.4433 15.5531C35.2281 15.5664 35.0364 15.6976 34.9465 15.8937C33.736 18.499 32.1746 22.496 32.1599 22.5358C32.0773 22.7481 32.1245 22.9885 32.2793 23.1536C32.3928 23.2745 32.5491 23.3394 32.7098 23.3394C32.7703 23.3394 32.8307 23.3305 32.8882 23.3113C32.9162 23.3025 35.8105 22.3928 38.7076 22.3928C39.7751 22.3928 40.7113 22.5152 41.4942 22.7585C41.3365 27.7832 41.1566 33.8252 41.0991 35.7227C39.9564 35.6579 37.4249 35.4647 35.9373 34.9605C35.5067 32.2093 36.1068 30.9413 36.5137 30.4223C36.8691 29.9697 37.335 29.7308 37.935 29.694C38.14 29.6807 38.3228 29.5642 38.4186 29.3829C39.7043 26.9737 40.5241 25.405 40.5314 25.3888C40.6155 25.2266 40.6199 25.0349 40.5447 24.8698C40.4695 24.7046 40.3191 24.5823 40.1422 24.541C40.1112 24.5336 39.3564 24.3626 38.2373 24.3626C36.1333 24.3626 33.1521 24.945 30.8963 27.7198C28.8042 30.2955 28.7216 32.9627 29.0224 34.7482C29.3807 36.8772 30.4761 38.9443 32.0301 40.4201C32.0935 40.4791 32.1673 40.5248 32.2498 40.5513C36.4356 41.9461 43.8075 43.6918 44.6184 43.6918C45.2996 43.6918 46.6826 42.8027 47.4463 42.2734C47.5967 42.1702 47.6896 42.0021 47.6984 41.8208L48.645 24.2269C48.645 24.2166 48.645 24.2063 48.645 24.196V16.5056C48.645 16.196 48.4061 15.9394 48.098 15.9173C48.039 15.9129 42.1164 15.4927 37.8525 15.4927L37.854 15.4912Z" fill="white"/>
<path d="M37.8555 16.6708C41.3217 16.6708 45.9071 16.9524 47.4684 17.0556V24.1784L46.5381 41.4655C45.7198 42.0125 44.8647 42.4814 44.617 42.5124C43.9948 42.4725 37.2642 40.9657 32.7511 39.4751C31.4286 38.1777 30.4968 36.3922 30.1872 34.5522C29.9277 33.007 29.9985 30.6966 31.8134 28.4644C33.7758 26.0494 36.3899 25.5437 38.2388 25.5437C38.5661 25.5437 38.858 25.5599 39.1013 25.582C38.7637 26.2248 38.2182 27.2569 37.5267 28.5558C36.7438 28.6812 36.0788 29.0719 35.5893 29.6955C34.6339 30.9119 34.373 32.9185 34.833 35.4987C34.8684 35.6963 35.0025 35.8629 35.1883 35.9396C37.2244 36.7829 41.4736 36.9244 41.6535 36.9303C41.6594 36.9303 41.6653 36.9303 41.6726 36.9303C41.823 36.9303 41.9675 36.8728 42.0766 36.7696C42.1901 36.662 42.258 36.5146 42.2624 36.3583C42.2653 36.2801 42.4968 28.4452 42.6885 22.3634C42.6959 22.1128 42.5455 21.8857 42.3125 21.7958C41.3188 21.411 40.1068 21.2149 38.7091 21.2149C36.7615 21.2149 34.861 21.5864 33.6933 21.871C34.2078 20.5853 35.0939 18.4106 35.8695 16.7106C36.4297 16.6841 37.0961 16.6708 37.8555 16.6708ZM37.8555 16.0811C36.9738 16.0811 36.1614 16.0987 35.4817 16.1415C34.2653 18.76 32.7099 22.7497 32.7099 22.7497C32.7099 22.7497 35.6793 21.8031 38.7091 21.8031C39.8872 21.8031 41.074 21.9462 42.0987 22.3442C41.9056 28.4969 41.6726 36.3406 41.6726 36.3406C41.6726 36.3406 37.3748 36.2049 35.4139 35.394C34.7371 31.6078 35.7235 29.2414 37.9012 29.1058C39.2001 26.6716 40.011 25.1161 40.011 25.1161C40.011 25.1161 39.3033 24.9524 38.2388 24.9524C36.4047 24.9524 33.5119 25.439 31.3564 28.0914C27.9505 32.2816 29.7331 37.4228 32.4386 39.9912C36.9015 41.4788 44.0228 43.1021 44.6199 43.1021C45.2171 43.1021 47.1116 41.7884 47.1116 41.7884L48.0582 24.1946V16.5042C48.0582 16.5042 42.1474 16.0811 37.8555 16.0811Z" fill="black"/>
<path d="M25.2372 3.53872C25.2372 3.53872 6.37248 12.7507 5.66183 13.8285C4.95117 14.9062 3.36768 23.8956 3.54314 25.2962C3.80263 27.3692 8.35111 40.823 9.71934 42.2C10.2236 42.7072 13.6854 45.3803 15.1289 45.3552C20.8465 45.2594 27.7835 41.7872 27.7835 41.7872C27.7835 41.7872 27.4223 27.1775 29.7783 18.5568C23.412 20.2804 16.904 23.3235 16.904 23.3235L18.228 28.3939L21.0795 26.9741L20.7758 33.0589C20.7758 33.0589 16.9556 33.1827 16.3025 32.7773C15.6493 32.3718 13.4746 21.2933 13.4746 21.2933C13.4746 21.2933 14.9962 17.7429 15.6051 17.4392C16.214 17.1355 26.4698 13.078 26.4698 13.078L25.2402 3.53577L25.2372 3.53872Z" fill="white"/>
<path d="M24.7566 4.43071L25.8226 12.702C23.7098 13.538 15.9 16.6342 15.3367 16.9158C15.0478 17.0603 14.6571 17.4407 13.7783 19.2232C13.3198 20.1521 12.9438 21.0279 12.9291 21.0647L12.8568 21.2328L12.8922 21.4112C12.8981 21.4392 13.4451 24.2199 14.0643 27.0153C15.3692 32.8981 15.698 33.1016 15.9884 33.283C16.1757 33.3994 16.6136 33.6707 19.5063 33.6707C20.2258 33.6707 20.7699 33.653 20.7934 33.653L21.336 33.6353L21.3626 33.0928L21.6663 27.008L21.7164 26.001L20.8141 26.4507L18.6128 27.5476L17.597 23.6582C19.0714 22.9947 23.9737 20.8524 28.9512 19.4046C27.0478 27.3604 27.1451 39.1156 27.1834 41.4245C26.5701 41.7135 25.1606 42.3519 23.3839 42.9903C20.2464 44.1167 17.3876 44.7316 15.1171 44.7699H15.1067C13.9759 44.7699 10.7352 42.3917 10.1351 41.7887C9.74145 41.3921 8.62387 39.067 6.76909 33.8167C5.40676 29.9612 4.24642 26.1882 4.12552 25.2269C4.06507 24.7433 4.29802 22.5892 4.84797 19.5491C5.39791 16.5059 5.911 14.5583 6.141 14.1734C6.36953 13.939 7.82475 12.9423 16.1653 8.7138C19.7393 6.90178 23.2645 5.16348 24.7536 4.43366M25.2372 3.53871C25.2372 3.53871 6.37248 12.7507 5.66183 13.8284C4.95117 14.9062 3.36768 23.8955 3.54314 25.2962C3.80263 27.3692 8.35111 40.823 9.71934 42.2C10.2206 42.7058 13.6545 45.3552 15.1082 45.3552C15.1141 45.3552 15.1215 45.3552 15.1274 45.3552C20.845 45.2594 27.782 41.7872 27.782 41.7872C27.782 41.7872 27.4208 27.1775 29.7769 18.5568C23.4105 20.2804 16.9025 23.3235 16.9025 23.3235L18.2265 28.3954L21.078 26.9755L20.7743 33.0603C20.7743 33.0603 20.2243 33.078 19.5063 33.078C18.3312 33.078 16.705 33.0308 16.2995 32.7787C15.6464 32.3733 13.4716 21.2947 13.4716 21.2947C13.4716 21.2947 14.9932 17.7444 15.6021 17.4407C16.2111 17.137 26.4669 13.0795 26.4669 13.0795L25.2372 3.53723V3.53871Z" fill="black"/>
<path d="M25.2393 3.53848L26.4689 13.0807C26.4689 13.0807 16.2116 17.1382 15.6042 17.4419C14.9953 17.7457 13.4737 21.296 13.4737 21.296C13.4737 21.296 15.6499 32.373 16.3016 32.78C16.707 33.0321 18.3333 33.0793 19.5084 33.0793C20.2264 33.0793 20.7763 33.0616 20.7763 33.0616L21.0801 26.9768L18.2286 28.3966L16.9046 23.3247C16.9046 23.3247 23.4125 20.2816 29.7789 18.558C27.4229 27.1788 27.7841 41.7885 27.7841 41.7885C27.7841 41.7885 20.8471 45.2606 15.1294 45.3565C15.1235 45.3565 15.1162 45.3565 15.1103 45.3565C13.6565 45.3565 10.2227 42.7055 9.72139 42.2013C8.35463 40.8242 3.80468 27.3704 3.54519 25.2975C3.36974 23.8953 4.95323 14.9075 5.66388 13.8297C6.37453 12.7519 25.2378 3.53995 25.2378 3.53995M25.7185 2.64795L24.9798 3.00917C24.9326 3.03276 20.2043 5.34165 15.4508 7.75375C5.70074 12.7003 5.35721 13.2237 5.17144 13.5053C4.64508 14.3059 3.96096 17.8503 3.69263 19.338C3.28717 21.5791 2.85223 24.5042 2.95986 25.3712C3.10877 26.5669 4.46373 30.8161 5.66093 34.2072C6.63255 36.9569 8.39739 41.7059 9.30119 42.6171C9.75383 43.0726 13.3602 45.9462 15.1088 45.9462H15.1383C20.9238 45.8489 27.759 42.4608 28.0465 42.3163L28.3812 42.1482L28.3724 41.7737C28.3724 41.7369 28.2854 38.0804 28.4859 33.4228C28.7513 27.2805 29.3941 22.1939 30.3466 18.7129L30.6179 17.7191L29.6226 17.9889C23.2798 19.7066 16.7173 22.76 16.6525 22.791L16.2072 22.9989L16.3311 23.4736L17.6551 28.5455L17.8379 29.2488L18.4881 28.9244L20.4372 27.9543L20.2102 32.4851C20.0111 32.488 19.7678 32.491 19.5039 32.491C17.5238 32.491 16.8677 32.3612 16.6731 32.3023C16.2308 31.4412 15.0351 26.1895 14.0826 21.3638C14.7225 19.8924 15.5703 18.2307 15.8843 17.9609C16.4682 17.6867 22.6252 15.2348 26.6812 13.6306L27.1073 13.4626L27.0484 13.007L25.8187 3.46476L25.714 2.64942L25.7185 2.64795Z" fill="white"/>
<path d="M65.4533 13.4865C61.0375 15.1098 52.1086 18.896 50.7581 19.7069C50.4219 25.5897 50.5576 39.0936 52.9239 44.8496C55.8993 43.3044 59.5616 40.8702 59.5616 40.8702C59.5616 40.8702 58.2833 29.7135 58.0386 23.6966C60.0924 22.75 63.3125 21.6678 63.3125 21.6678L64.4861 24.9129L63.743 36.6785C63.743 36.6785 65.9059 41.2182 66.2096 41.7888C66.5148 42.3579 70.503 38.0984 70.503 38.0984C70.503 38.0984 71.7194 26.2664 71.7194 25.9951C71.7194 25.7239 74.8304 22.4787 74.8304 22.4787L78.1433 23.7629C78.1433 23.7629 76.2576 38.5702 75.7474 41.4777C75.2373 44.3852 75.1017 44.8496 75.1017 44.8496C75.1017 44.8496 81.3899 43.7777 83.4187 42.4242C84.5687 34.3785 86.0858 20.6313 85.785 19.8411C85.4843 19.0508 76.868 14.7028 75.7474 14.4994C74.6284 14.2959 68.9712 21.3965 68.9712 21.3965L65.4533 13.485V13.4865Z" fill="white"/>
<path d="M87.1085 9.43028C87.6127 17.9493 87.7351 33.1635 86.6086 43.5077C93.5958 42.3916 102.318 38.7411 103.942 37.2195C105.565 35.6979 108.545 26.1985 108.39 23.291C108.235 20.3835 100.864 16.1417 100.864 16.1417L93.6975 21.1944L94.7443 6.7926L87.1085 9.43028Z" fill="white"/>
<path d="M94.746 6.79239L93.6992 21.1942L100.866 16.1415C100.866 16.1415 108.237 20.3833 108.391 23.2908C108.546 26.1983 105.565 35.6977 103.943 37.2193C102.32 38.7409 93.5974 42.3914 86.6103 43.5075C87.7367 33.1618 87.6144 17.9491 87.1101 9.43007L94.746 6.79239ZM94.746 6.20264C94.6811 6.20264 94.6162 6.21296 94.5528 6.23507L86.917 8.87275C86.6678 8.95974 86.5056 9.20154 86.5204 9.46545C87.0659 18.7054 87.0777 33.7545 86.0235 43.4441C86.0043 43.627 86.0707 43.8083 86.2034 43.9351C86.314 44.0398 86.4599 44.0973 86.6103 44.0973C86.6413 44.0973 86.6722 44.0943 86.7032 44.0899C90.9981 43.4043 95.3107 41.9019 97.4986 41.066C100.829 39.795 103.454 38.4858 104.346 37.6483C105.569 36.5013 106.989 32.2329 107.395 30.9517C108.22 28.3479 109.07 24.9598 108.98 23.2583C108.904 21.8532 107.579 20.1842 104.928 18.157C103.057 16.7268 101.236 15.6741 101.16 15.6299C101.068 15.5768 100.966 15.5517 100.866 15.5517C100.747 15.5517 100.627 15.5886 100.526 15.6593L94.3774 19.994L95.3343 6.83515C95.349 6.63758 95.262 6.44591 95.1057 6.32501C95.001 6.24539 94.8742 6.20264 94.746 6.20264Z" fill="white"/>
<path d="M94.2386 34.9919C94.1324 34.9919 94.0262 34.9624 93.9319 34.9064C93.7579 34.8002 93.6503 34.6115 93.6488 34.4065C93.6488 34.3461 93.6046 28.3321 93.6488 26.0512C93.6532 25.861 93.7476 25.6826 93.9054 25.5765L98.4583 22.467C98.5585 22.3977 98.675 22.3638 98.79 22.3638C98.933 22.3638 99.0745 22.4154 99.1851 22.5156C102.242 25.2801 102.193 25.864 102.172 26.1117C102.125 26.6763 100.711 30.3564 100.105 31.9119C100.052 32.0475 99.9518 32.1581 99.8221 32.223L94.5025 34.927C94.4184 34.9698 94.327 34.9904 94.2356 34.9904L94.2386 34.9919Z" fill="#181818"/>
<path d="M98.7898 22.9536C98.7898 22.9536 101.629 25.5234 101.585 26.0645C101.539 26.6056 99.5564 31.6996 99.5564 31.6996L94.2369 34.4036C94.2369 34.4036 94.1911 28.3631 94.2369 26.0645L98.7898 22.9536ZM98.7898 21.774C98.5583 21.774 98.3268 21.8419 98.1248 21.979L93.5719 25.0899C93.2564 25.3052 93.0662 25.6591 93.0573 26.0409C93.0131 28.3292 93.0559 34.1648 93.0573 34.4125C93.0603 34.8209 93.2741 35.1983 93.6235 35.4121C93.8108 35.5256 94.0231 35.5846 94.2369 35.5846C94.4197 35.5846 94.6025 35.5419 94.7721 35.4563L100.092 32.7523C100.35 32.6211 100.552 32.3985 100.656 32.1287C102.701 26.8754 102.747 26.3402 102.762 26.1633C102.818 25.488 102.417 24.8614 101.043 23.477C100.325 22.753 99.6125 22.1073 99.583 22.0807C99.3603 21.8787 99.0758 21.7755 98.7912 21.7755L98.7898 21.774Z" fill="black"/>
<path d="M94.2403 34.6967C94.1872 34.6967 94.1342 34.6819 94.087 34.6539C94 34.6008 93.9454 34.5065 93.9454 34.4047C93.9454 34.3443 93.9012 28.3347 93.9454 26.0582C93.9469 25.9624 93.9956 25.874 94.0737 25.8209L98.6266 22.7114C98.6767 22.6775 98.7357 22.6598 98.7932 22.6598C98.864 22.6598 98.9348 22.6849 98.9908 22.7365C100.335 23.9528 101.929 25.523 101.882 26.0892C101.836 26.6451 100.169 30.9488 99.8341 31.8069C99.8076 31.8747 99.7575 31.9293 99.6926 31.9632L94.373 34.6672C94.3303 34.6878 94.2845 34.6996 94.2388 34.6996L94.2403 34.6967Z" fill="#181818"/>
<path d="M98.7918 22.9532C98.7918 22.9532 101.632 25.523 101.587 26.0641C101.542 26.6052 99.5585 31.6992 99.5585 31.6992L94.2389 34.4032C94.2389 34.4032 94.1932 28.3627 94.2389 26.0641L98.7918 22.9532ZM98.7918 22.3634C98.6768 22.3634 98.5604 22.3973 98.4586 22.4666L93.9057 25.5776C93.748 25.6852 93.6521 25.8621 93.6492 26.0523C93.6049 28.3332 93.6492 34.3472 93.6492 34.4077C93.6506 34.6126 93.7583 34.8013 93.9323 34.9075C94.0266 34.965 94.1328 34.993 94.2389 34.993C94.3303 34.993 94.4218 34.9724 94.5058 34.9296L99.8254 32.2256C99.9551 32.1592 100.055 32.0486 100.107 31.9145C100.713 30.359 102.127 26.6804 102.174 26.1142C102.221 25.551 101.5 24.774 100.624 23.8923C99.9168 23.1787 99.2165 22.5448 99.187 22.5182C99.0749 22.418 98.9334 22.3664 98.7918 22.3664V22.3634Z" fill="white"/>
<path d="M95.4068 32.4851C95.398 30.76 95.3921 28.2595 95.4083 26.6922L98.677 24.4585C99.3685 25.119 100.035 25.8046 100.336 26.1909C100.084 26.9885 99.3434 28.9804 98.621 30.85L95.4068 32.4836V32.4851Z" fill="#181818"/>
<path d="M98.5435 25.9786C98.7131 26.1496 98.8679 26.3103 99.0021 26.4548C98.6983 27.3232 98.1882 28.69 97.6825 30.0036L96.5782 30.5654C96.5752 29.4507 96.5752 28.2771 96.5811 27.3188L98.5421 25.98M98.7912 22.9531L94.2383 26.0641C94.1926 28.3626 94.2383 34.4032 94.2383 34.4032L99.5579 31.6992C99.5579 31.6992 101.541 26.6052 101.587 26.0641C101.632 25.523 98.7912 22.9531 98.7912 22.9531Z" fill="#181818"/>
<path d="M110.534 16.8008C111.007 22.8856 111.908 34.0039 111.356 37.8963C110.805 41.7886 109.485 45.6044 109.485 45.6044L118.175 40.9394L117.229 16.1432L110.535 16.8008H110.534Z" fill="white"/>
<path d="M123.922 5.30781C123.922 11.6609 123.516 16.1416 123.516 16.1416L120.223 17.2061L119.993 22.5478L123.584 22.278C123.584 22.278 123.915 31.2039 121.957 37.6263C129.06 40.6695 135.686 36.6798 135.686 36.6798L136.295 29.5806C136.295 29.5806 130.953 31.5415 128.723 31.5415C129.331 26.9444 129.196 20.7903 129.196 20.7903L134.266 19.1007L135.009 13.8312L129.464 14.707C129.464 14.707 129.194 7.47221 129.059 4.42908C127.301 4.97018 123.92 5.31076 123.92 5.31076L123.922 5.30781Z" fill="white"/>
<path d="M65.454 13.4862L68.9719 21.3978C68.9719 21.3978 74.4699 14.4962 75.698 14.4962C75.7157 14.4962 75.732 14.4962 75.7482 14.5006C76.8672 14.7041 85.4835 19.052 85.7858 19.8423C86.0866 20.6326 84.5694 34.3798 83.4194 42.4255C81.3906 43.7775 75.1024 44.8508 75.1024 44.8508C75.1024 44.8508 75.238 44.3864 75.7482 41.4789C76.2583 38.5714 78.1441 23.7642 78.1441 23.7642L74.8311 22.48C74.8311 22.48 71.7202 25.7251 71.7202 25.9964C71.7202 26.2677 70.5038 38.0996 70.5038 38.0996C70.5038 38.0996 66.9992 41.8416 66.3092 41.8416C66.2635 41.8416 66.2295 41.8254 66.2104 41.7885C65.9052 41.2194 63.7437 36.6783 63.7437 36.6783L64.4868 24.9127L63.3132 21.6676C63.3132 21.6676 60.0932 22.7498 58.0393 23.6964C58.2856 29.7148 59.5624 40.87 59.5624 40.87C59.5624 40.87 55.9 43.3042 52.9247 44.8494C50.5583 39.0919 50.4227 25.588 50.7588 19.7067C52.1094 18.8958 61.0382 15.1095 65.454 13.4862ZM65.454 12.8965C65.3862 12.8965 65.3184 12.9083 65.2505 12.9333C60.8407 14.5537 51.8528 18.362 50.4551 19.2024C50.2885 19.3027 50.1809 19.4796 50.1705 19.6742C49.8432 25.4111 49.9509 39.1686 52.3792 45.0749C52.4426 45.2283 52.5664 45.3477 52.7212 45.4052C52.7876 45.4288 52.8554 45.4406 52.9232 45.4406C53.0176 45.4406 53.1105 45.4185 53.1945 45.3742C56.1639 43.832 59.8499 41.386 59.8867 41.3624C60.071 41.2401 60.1713 41.0248 60.1462 40.8037C60.1344 40.6945 58.9225 30.0819 58.6438 24.0709C60.1138 23.4236 62.0305 22.7365 62.9549 22.4151L63.8897 24.9997L63.154 36.6429C63.1481 36.7432 63.1672 36.8435 63.21 36.9334C63.2985 37.1192 65.3818 41.4922 65.6899 42.0672C65.8123 42.2957 66.0438 42.4314 66.3092 42.4314C66.6483 42.4314 67.1422 42.2736 69.0766 40.3938C70.0379 39.459 70.9255 38.5125 70.9343 38.5021C71.0228 38.4078 71.0773 38.2884 71.0906 38.1601C71.4326 34.8324 72.1979 27.3646 72.2996 26.1571C72.565 25.7738 73.7946 24.4262 74.9859 23.173L77.5012 24.149C77.1783 26.6687 75.6199 38.8059 75.1673 41.3787C74.6807 44.149 74.5407 44.671 74.5348 44.6916C74.4773 44.8862 74.5259 45.0956 74.6616 45.246C74.7736 45.3728 74.9343 45.4406 75.1009 45.4406C75.1348 45.4406 75.1687 45.4376 75.2027 45.4317C75.4651 45.3875 81.6383 44.3215 83.7467 42.9164C83.8868 42.8236 83.9797 42.6746 84.0033 42.5095C84.565 38.5744 85.2285 33.1973 85.7327 28.4763C86.6041 20.3333 86.4168 19.8423 86.3372 19.633C86.2428 19.3853 86.0468 18.8707 81.3464 16.4291C79.7998 15.6256 76.6623 14.0686 75.8543 13.9212C75.8042 13.9123 75.7526 13.9079 75.6995 13.9079C75.3589 13.9079 74.8842 14.0583 73.7268 15.1464C73.1046 15.7317 72.3335 16.5426 71.4341 17.557C70.5288 18.5788 69.6708 19.6094 69.1208 20.2802L65.9936 13.2489C65.8963 13.0307 65.6811 12.898 65.454 12.898V12.8965Z" fill="white"/>
<path d="M117.229 16.1415L118.176 40.9377L109.486 45.6027C109.486 45.6027 110.805 41.787 111.357 37.8946C111.908 34.0022 111.007 22.8839 110.534 16.7991L117.228 16.1415M117.229 15.5518C117.21 15.5518 117.191 15.5518 117.172 15.5547L110.478 16.2123C110.158 16.2433 109.922 16.5249 109.947 16.8448L110.002 17.5496C110.486 23.7508 111.295 34.129 110.773 37.812C110.236 41.5997 108.942 45.3727 108.929 45.4096C108.849 45.6396 108.918 45.8932 109.104 46.0509C109.213 46.1438 109.349 46.191 109.486 46.191C109.582 46.191 109.678 46.1674 109.765 46.1202L118.455 41.4553C118.654 41.3491 118.773 41.1383 118.764 40.9127L117.818 16.1165C117.812 15.9543 117.738 15.8009 117.616 15.6948C117.508 15.6004 117.369 15.5488 117.228 15.5488L117.229 15.5518Z" fill="white"/>
<path d="M129.059 4.42618C129.195 7.46931 129.465 14.7041 129.465 14.7041L135.01 13.8283L134.267 19.0978L129.197 20.7889C129.197 20.7889 129.332 26.9415 128.723 31.5401C130.954 31.5401 136.296 29.5792 136.296 29.5792L135.687 36.6784C135.687 36.6784 132.215 38.769 127.601 38.769C125.842 38.769 123.917 38.4653 121.956 37.6249C123.912 31.201 123.584 22.2766 123.584 22.2766L119.992 22.5464L120.222 17.2047L123.516 16.1402C123.516 16.1402 123.921 11.6595 123.921 5.30639C123.921 5.30639 127.302 4.9658 129.059 4.42471M129.059 3.83643C129.002 3.83643 128.943 3.84527 128.885 3.86296C127.205 4.38047 123.895 4.71811 123.861 4.72106C123.56 4.75202 123.33 5.00561 123.33 5.30786C123.33 10.5095 123.054 14.4844 122.958 15.7023L120.039 16.6459C119.805 16.7211 119.641 16.9349 119.631 17.1811L119.401 22.5228C119.393 22.6909 119.458 22.8545 119.579 22.9725C119.69 23.0801 119.837 23.1391 119.989 23.1391C120.004 23.1391 120.018 23.1391 120.033 23.1376L123.006 22.9135C123.035 25.0263 123.004 32.1594 121.391 37.4554C121.304 37.7429 121.447 38.051 121.723 38.169C123.569 38.9592 125.546 39.3603 127.6 39.3603C132.322 39.3603 135.842 37.274 135.989 37.1855C136.151 37.0882 136.256 36.9187 136.272 36.73L136.881 29.6308C136.899 29.4303 136.812 29.2342 136.651 29.1118C136.546 29.0322 136.421 28.9909 136.293 28.9909C136.225 28.9909 136.156 29.0027 136.089 29.0263C136.042 29.044 131.76 30.6083 129.391 30.9032C129.816 27.1406 129.804 22.6157 129.788 21.2135L134.45 19.6595C134.662 19.5888 134.815 19.4045 134.848 19.1818L135.591 13.9124C135.617 13.7266 135.554 13.5408 135.42 13.4096C135.309 13.3005 135.16 13.2401 135.006 13.2401C134.975 13.2401 134.944 13.243 134.914 13.2474L130.027 14.0185C129.956 12.1579 129.755 6.86924 129.646 4.40112C129.639 4.21829 129.546 4.05021 129.397 3.94553C129.297 3.87476 129.177 3.8379 129.058 3.8379L129.059 3.83643Z" fill="white"/>
<path d="M94.0911 7.64332L93.1092 21.1531C93.093 21.3802 93.208 21.5969 93.407 21.709C93.497 21.7606 93.5972 21.7856 93.6975 21.7856C93.8169 21.7856 93.9363 21.7488 94.0381 21.678L100.892 16.845C101.497 17.2091 102.861 18.0628 104.22 19.1022C107.265 21.4318 107.77 22.7469 107.801 23.3234C107.868 24.5766 107.253 27.5003 106.271 30.598C105.291 33.6883 104.194 36.1771 103.539 36.7904C102.107 38.1321 94.0454 41.5616 87.278 42.7956C88.3632 32.0518 88.1523 17.4966 87.7248 9.84163L94.0926 7.64185M94.7443 6.7926L87.1085 9.43028C87.6127 17.9493 87.7351 33.1635 86.6086 43.5077C93.5958 42.3916 102.318 38.7411 103.942 37.2195C105.565 35.6979 108.545 26.1985 108.39 23.291C108.235 20.3835 100.864 16.1417 100.864 16.1417L93.6975 21.1944L94.7443 6.7926Z" fill="black"/>
<path d="M65.1426 14.2321L68.4364 21.6365C68.5205 21.8252 68.6959 21.9564 68.9009 21.9815C68.9259 21.9844 68.951 21.9859 68.9761 21.9859C69.1545 21.9859 69.324 21.9048 69.4375 21.7633C69.4508 21.7471 70.7556 20.1105 72.2123 18.4592C74.7335 15.6004 75.5326 15.1595 75.7051 15.0932C76.2035 15.2259 78.1453 16.0987 80.5986 17.3652C83.5209 18.8735 84.9304 19.7847 85.2356 20.0795C85.3697 21.5244 84.0679 33.6807 82.8795 42.0685C81.2665 42.9915 77.5555 43.7832 75.8703 44.1091C75.972 43.5945 76.1209 42.7998 76.3347 41.5805C76.8419 38.6922 78.6583 24.4422 78.735 23.8377C78.7689 23.5694 78.6156 23.3114 78.3635 23.2141L75.0505 21.9299C74.9812 21.9033 74.909 21.8901 74.8367 21.8901C74.679 21.8901 74.5242 21.9535 74.4106 22.0714C74.4033 22.0803 73.6204 22.8971 72.8478 23.736C71.1611 25.5701 71.1375 25.725 71.1375 25.9844C71.1139 26.3987 70.4195 33.2104 69.9433 37.84C68.6974 39.1596 67.2171 40.5912 66.5242 41.0895C66.0464 40.1209 64.979 37.8901 64.3465 36.5632L65.0807 24.9509C65.0851 24.8698 65.0748 24.7887 65.0468 24.7135L63.8732 21.4684C63.7862 21.2296 63.5606 21.0792 63.3188 21.0792C63.2569 21.0792 63.1935 21.0895 63.1316 21.1101C62.9989 21.1544 59.857 22.213 57.7987 23.1625C57.582 23.2627 57.4464 23.4839 57.4567 23.7227C57.6749 29.0836 58.7217 38.6111 58.9429 40.5794C58.0848 41.1397 55.537 42.7792 53.2458 44.0191C52.3597 41.4979 51.7331 37.4699 51.425 32.2933C51.1404 27.5104 51.1905 22.9104 51.338 20.0677C53.1721 19.1123 60.7165 15.8967 65.1485 14.2351M65.4567 13.4861C61.0409 15.1094 52.112 18.8956 50.7615 19.7065C50.4253 25.5893 50.561 39.0932 52.9274 44.8492C55.9027 43.3041 59.565 40.8698 59.565 40.8698C59.565 40.8698 58.2868 29.7132 58.042 23.6962C60.0958 22.7496 63.3159 21.6674 63.3159 21.6674L64.4895 24.9126L63.7464 36.6782C63.7464 36.6782 65.9093 41.2178 66.2131 41.7884C66.2322 41.8238 66.2661 41.8415 66.3118 41.8415C67.0019 41.8415 70.5065 38.0995 70.5065 38.0995C70.5065 38.0995 71.7228 26.2675 71.7228 25.9962C71.7228 25.725 74.8338 22.4798 74.8338 22.4798L78.1467 23.764C78.1467 23.764 76.261 38.5713 75.7509 41.4788C75.2407 44.3862 75.1051 44.8507 75.1051 44.8507C75.1051 44.8507 81.3933 43.7788 83.4221 42.4253C84.5721 34.3796 86.0892 20.6324 85.7885 19.8422C85.4877 19.0519 76.8714 14.7039 75.7509 14.5005C75.7346 14.4975 75.7184 14.496 75.7007 14.496C74.4726 14.496 68.9746 21.3976 68.9746 21.3976L65.4567 13.4861Z" fill="black"/>
<path d="M116.661 16.7905L117.569 40.5929L110.485 44.3968C110.926 42.9254 111.583 40.4823 111.937 37.9788C112.477 34.1676 111.661 23.7083 111.173 17.4598L111.163 17.3316L116.658 16.7919M117.227 16.1417L110.534 16.7993C111.007 22.8841 111.908 34.0024 111.356 37.8948C110.805 41.7872 109.485 45.6029 109.485 45.6029L118.175 40.9379L117.229 16.1417H117.227Z" fill="black"/>
<path d="M128.502 5.18546C128.642 8.4866 128.874 14.6584 128.875 14.7262C128.881 14.8943 128.959 15.052 129.09 15.1597C129.197 15.2467 129.329 15.2938 129.465 15.2938C129.496 15.2938 129.527 15.2909 129.556 15.2865L134.314 14.536L133.733 18.6554L129.008 20.2301C128.763 20.3112 128.599 20.5441 128.605 20.8021C128.605 20.8626 128.732 26.9636 128.136 31.4619C128.114 31.63 128.166 31.7996 128.278 31.9279C128.39 32.0561 128.552 32.1284 128.722 32.1284C130.494 32.1284 133.997 31.0005 135.629 30.4387L135.125 36.3141C134.261 36.7712 131.302 38.1778 127.601 38.1778C125.887 38.1778 124.231 37.8755 122.672 37.2769C124.468 30.8928 124.187 22.6112 124.173 22.2529C124.167 22.0922 124.097 21.9418 123.977 21.8357C123.868 21.7384 123.728 21.6853 123.584 21.6853C123.569 21.6853 123.554 21.6853 123.539 21.6868L120.61 21.9079L120.794 17.6396L123.699 16.7019C123.924 16.6296 124.083 16.4291 124.104 16.1932C124.108 16.149 124.49 11.8659 124.511 5.83419C125.381 5.73393 127.14 5.50687 128.504 5.18398M129.059 4.42615C127.302 4.96725 123.921 5.30783 123.921 5.30783C123.921 11.661 123.516 16.1416 123.516 16.1416L120.222 17.2061L119.992 22.5478L123.584 22.278C123.584 22.278 123.914 31.2025 121.956 37.6264C123.917 38.4668 125.842 38.7705 127.601 38.7705C132.213 38.7705 135.687 36.6798 135.687 36.6798L136.296 29.5806C136.296 29.5806 130.954 31.5416 128.723 31.5416C129.332 26.9444 129.197 20.7903 129.197 20.7903L134.267 19.0992L135.01 13.8298L129.465 14.7056C129.465 14.7056 129.195 7.47075 129.059 4.42762V4.42615Z" fill="black"/>
<path d="M15.3547 42.7839C20.1775 41.9302 25.3614 39.9015 25.3614 39.9015L26.1723 34.7175V40.6681C26.1723 40.6681 17.9688 43.9383 16.2998 44.1285C15.8015 43.437 15.3533 42.7839 15.3533 42.7839H15.3547Z" fill="black"/>
<path d="M32.7102 37.9301C36.666 39.3499 45.2189 40.668 46.8422 40.4321C46.8083 40.9054 46.8422 41.3786 46.8422 41.3786L46.1994 41.7841C46.1994 41.7841 34.907 39.7214 32.7102 37.9301Z" fill="black"/>
<path d="M52.318 42.1114C54.1669 41.5261 57.9074 40.0826 57.9074 40.0826L52.6792 43.1022L52.318 42.1099V42.1114Z" fill="black"/>
<path d="M76.0166 41.9861L81.6974 40.8376L83.3531 32.7904L82.1029 41.479L75.7129 43.0683L76.0166 41.9861Z" fill="black"/>
<path d="M86.8925 40.5073C90.0035 40.0369 98.6478 37.2238 101.947 35.574C103.12 34.9887 104.472 32.5544 104.472 32.5544C104.472 32.5544 103.12 36.0458 102.173 36.5309C101.227 37.0174 90.3397 40.7874 86.8925 41.5246C86.8616 40.8906 86.8925 40.5073 86.8925 40.5073Z" fill="black"/>
<path d="M110.908 41.818C112.362 41.1752 116.386 39.1479 116.386 39.1479L116.521 37.762L116.759 39.7907L110.47 43.3071L110.91 41.8195L110.908 41.818Z" fill="black"/>
<path d="M135.449 34.8532C133.285 35.9354 127.268 36.6107 124.732 36.1374C124.868 35.0213 124.732 33.9406 124.732 33.9406C124.732 33.9406 124.293 36.0371 124.021 36.5104C126.05 37.2211 132.574 36.848 135.448 35.5978C135.516 35.2601 135.448 34.8547 135.448 34.8547L135.449 34.8532Z" fill="black"/>
<path d="M11.9722 43.4857L15.3529 42.7839L16.2995 44.1286L14.7219 44.4205H13.3699L11.9722 43.4857Z" fill="black"/>
</g>
<path d="M112.677 10.4422C115.078 10.4422 117.024 8.49587 117.024 6.0949C117.024 3.69393 115.078 1.74756 112.677 1.74756C110.276 1.74756 108.33 3.69393 108.33 6.0949C108.33 8.49587 110.276 10.4422 112.677 10.4422Z" fill="#181818" stroke="black" stroke-width="0.218412" stroke-miterlimit="10"/>
<path d="M108.33 6.0949C108.33 6.94623 108.575 7.74032 108.998 8.41122C109.655 8.84765 110.443 9.10181 111.291 9.10181C113.584 9.10181 115.442 7.24344 115.442 4.95093C115.442 3.81796 114.988 2.79123 114.252 2.04202C113.764 1.85197 113.233 1.74756 112.677 1.74756C110.276 1.74756 108.33 3.69385 108.33 6.0949Z" fill="white"/>
<path d="M113.575 2.61756C111.661 2.51543 109.907 3.92959 109.433 5.74903C109.27 6.35078 109.253 6.99146 109.341 7.63488C109.101 7.02306 109.037 6.33888 109.152 5.68721C109.471 3.7171 111.579 2.05931 113.575 2.61756H113.575Z" fill="white"/>
<path d="M116.975 6.74385C116.727 6.56387 116.505 6.43793 116.329 6.34863C115.709 6.79926 114.936 7.75684 114.936 7.75684C115.245 8.28028 115.532 8.75471 115.816 9.1023C116.422 8.46895 116.839 7.65242 116.975 6.74385Z" fill="white" stroke="black" stroke-width="0.218412" stroke-linejoin="round"/>
<path d="M114.085 1.98047C114.151 2.56298 114.226 3.08322 114.362 3.47431C115.188 3.59612 115.649 3.66802 116.046 3.62406C116.085 3.57689 116.121 3.53155 116.156 3.48713C115.638 2.79654 114.919 2.26577 114.085 1.98093L114.085 1.98047Z" fill="white" stroke="black" stroke-width="0.218412" stroke-linejoin="round"/>
<path d="M114.085 1.98083C114.151 2.56335 114.226 3.08313 114.362 3.47422C114.701 3.52413 114.979 3.56581 115.216 3.5942C115.012 3.00573 114.68 2.4768 114.253 2.0422C114.251 2.04174 114.25 2.04083 114.249 2.04037C114.195 2.0193 114.14 2.00007 114.085 1.98129L114.085 1.98083Z" fill="white"/>
<path d="M114.085 1.98047C114.151 2.56298 114.226 3.08322 114.362 3.47431C115.188 3.59612 115.649 3.66802 116.046 3.62406C116.085 3.57689 116.121 3.53155 116.156 3.48713C115.638 2.79654 114.919 2.26577 114.085 1.98093L114.085 1.98047Z" stroke="black" stroke-width="0.218412" stroke-linejoin="round"/>
<path d="M112.677 10.4422C115.078 10.4422 117.024 8.49587 117.024 6.0949C117.024 3.69393 115.078 1.74756 112.677 1.74756C110.276 1.74756 108.33 3.69393 108.33 6.0949C108.33 8.49587 110.276 10.4422 112.677 10.4422Z" stroke="black" stroke-width="0.218412" stroke-miterlimit="10"/>
<path d="M112.214 5.02099C112.834 4.38398 113.531 3.84131 114.253 3.32703L114.471 3.62149C114.139 3.88939 113.812 4.1747 113.499 4.46595C113.189 4.75584 112.888 5.059 112.616 5.3814L112.214 5.02099Z" fill="black"/>
<path d="M112.565 6.85107C113.601 7.38321 114.938 7.75645 114.938 7.75645" stroke="black" stroke-width="0.218412" stroke-linejoin="round"/>
<path d="M116.211 6.32935C116.287 5.6983 116.198 5.05258 116.079 4.43022C116.036 4.22048 115.988 4.01166 115.932 3.80833L116.286 3.71765C116.429 4.36978 116.514 5.02968 116.509 5.69738C116.505 5.9204 116.49 6.1448 116.449 6.36828L116.21 6.32935H116.211Z" fill="black"/>
<path d="M111.291 7.69824C111.333 8.71352 111.655 9.84741 112.299 10.2953" stroke="black" stroke-width="0.218412" stroke-linejoin="round"/>
<path d="M110.005 6.73975C109.497 6.99116 108.825 7.69824 108.825 7.69824" stroke="black" stroke-width="0.218412" stroke-linejoin="round"/>
<path d="M110.379 5.08941C109.917 4.1071 109.883 3.22417 110.117 2.66455" stroke="black" stroke-width="0.218412" stroke-linejoin="round"/>
<path d="M110.44 5.10105C110.23 5.75913 110.048 6.35401 109.999 6.83028C110.615 7.29922 110.958 7.56529 111.294 7.69856C111.938 7.36242 112.253 7.10368 112.568 6.85135C112.617 6.10946 112.512 5.55626 112.417 5.20134C111.668 5.03923 110.44 5.10105 110.44 5.10105Z" fill="white"/>
<path d="M110.55 5.24628C110.564 5.26551 110.576 5.26917 110.574 5.27879C110.573 5.2852 110.564 5.30902 110.562 5.31634C110.408 5.81368 110.238 6.33758 110.18 6.84911L110.108 6.6847C110.507 6.97733 110.914 7.33683 111.36 7.52825L111.208 7.53604C111.429 7.41972 111.646 7.29607 111.851 7.15869C112.058 7.02222 112.252 6.86926 112.452 6.70852L112.384 6.83949C112.39 6.30689 112.322 5.77475 112.157 5.27101C112.156 5.26917 112.359 5.4638 112.359 5.46335C112.214 5.42579 112.059 5.39786 111.902 5.37496C111.443 5.31131 110.972 5.28887 110.508 5.28429C110.501 5.28474 110.469 5.28383 110.462 5.28429C110.492 5.28337 110.528 5.2678 110.55 5.24628ZM110.327 4.95593C110.374 4.92159 110.437 4.91563 110.494 4.91289C110.979 4.87625 111.463 4.85839 111.949 4.88358C112.121 4.89365 112.294 4.90922 112.473 4.93945C112.576 4.95685 112.653 5.03516 112.675 5.13133C112.799 5.70377 112.816 6.29545 112.749 6.87292C112.743 6.92238 112.717 6.96543 112.681 6.99428C112.483 7.15365 112.275 7.31805 112.055 7.46322C111.836 7.60977 111.608 7.73982 111.377 7.86072C111.329 7.88637 111.273 7.88729 111.225 7.86851C111.091 7.81447 110.966 7.74715 110.85 7.6748C110.512 7.46185 110.202 7.21318 109.887 6.97596C109.834 6.93612 109.809 6.87292 109.815 6.81156C109.878 6.2698 110.039 5.77155 110.196 5.2591C110.227 5.1556 110.266 5.04295 110.327 4.95593Z" fill="black"/>
<path d="M34.3558 56.5926H31.3158L30.7558 58.1426H29.7958L32.3158 51.2126H33.3658L35.8758 58.1426H34.9158L34.3558 56.5926ZM34.0958 55.8526L32.8358 52.3326L31.5758 55.8526H34.0958ZM39.1441 51.1726C39.9041 51.1726 40.5608 51.3159 41.1141 51.6026C41.6741 51.8826 42.1008 52.2859 42.3941 52.8126C42.6941 53.3392 42.8441 53.9592 42.8441 54.6726C42.8441 55.3859 42.6941 56.0059 42.3941 56.5326C42.1008 57.0526 41.6741 57.4526 41.1141 57.7326C40.5608 58.0059 39.9041 58.1426 39.1441 58.1426H36.9741V51.1726H39.1441ZM39.1441 57.3926C40.0441 57.3926 40.7308 57.1559 41.2041 56.6826C41.6774 56.2026 41.9141 55.5326 41.9141 54.6726C41.9141 53.8059 41.6741 53.1292 41.1941 52.6426C40.7208 52.1559 40.0374 51.9126 39.1441 51.9126H37.8841V57.3926H39.1441ZM51.1144 51.2226V58.1426H50.2044V52.9826L47.9044 58.1426H47.2644L44.9544 52.9726V58.1426H44.0444V51.2226H45.0244L47.5844 56.9426L50.1444 51.2226H51.1144ZM53.5677 51.1726V58.1426H52.6577V51.1726H53.5677ZM60.5986 58.1426H59.6886L56.0286 52.5926V58.1426H55.1186V51.1626H56.0286L59.6886 56.7026V51.1626H60.5986V58.1426ZM66.9859 51.1726C67.7459 51.1726 68.4026 51.3159 68.9559 51.6026C69.5159 51.8826 69.9426 52.2859 70.2359 52.8126C70.5359 53.3392 70.6859 53.9592 70.6859 54.6726C70.6859 55.3859 70.5359 56.0059 70.2359 56.5326C69.9426 57.0526 69.5159 57.4526 68.9559 57.7326C68.4026 58.0059 67.7459 58.1426 66.9859 58.1426H64.8159V51.1726H66.9859ZM66.9859 57.3926C67.8859 57.3926 68.5726 57.1559 69.0459 56.6826C69.5192 56.2026 69.7559 55.5326 69.7559 54.6726C69.7559 53.8059 69.5159 53.1292 69.0359 52.6426C68.5626 52.1559 67.8792 51.9126 66.9859 51.9126H65.7259V57.3926H66.9859ZM76.0062 56.5926H72.9662L72.4062 58.1426H71.4462L73.9662 51.2126H75.0162L77.5262 58.1426H76.5662L76.0062 56.5926ZM75.7462 55.8526L74.4862 52.3326L73.2262 55.8526H75.7462ZM80.8345 58.2126C80.3745 58.2126 79.9612 58.1326 79.5945 57.9726C79.2345 57.8059 78.9512 57.5792 78.7445 57.2926C78.5378 56.9992 78.4312 56.6626 78.4245 56.2826H79.3945C79.4278 56.6092 79.5612 56.8859 79.7945 57.1126C80.0345 57.3326 80.3812 57.4426 80.8345 57.4426C81.2678 57.4426 81.6078 57.3359 81.8545 57.1226C82.1078 56.9026 82.2345 56.6226 82.2345 56.2826C82.2345 56.0159 82.1612 55.7992 82.0145 55.6326C81.8678 55.4659 81.6845 55.3392 81.4645 55.2526C81.2445 55.1659 80.9478 55.0726 80.5745 54.9726C80.1145 54.8526 79.7445 54.7326 79.4645 54.6126C79.1912 54.4926 78.9545 54.3059 78.7545 54.0526C78.5612 53.7926 78.4645 53.4459 78.4645 53.0126C78.4645 52.6326 78.5612 52.2959 78.7545 52.0026C78.9478 51.7092 79.2178 51.4826 79.5645 51.3226C79.9178 51.1626 80.3212 51.0826 80.7745 51.0826C81.4278 51.0826 81.9612 51.2459 82.3745 51.5726C82.7945 51.8992 83.0312 52.3326 83.0845 52.8726H82.0845C82.0512 52.6059 81.9112 52.3726 81.6645 52.1726C81.4178 51.9659 81.0912 51.8626 80.6845 51.8626C80.3045 51.8626 79.9945 51.9626 79.7545 52.1626C79.5145 52.3559 79.3945 52.6292 79.3945 52.9826C79.3945 53.2359 79.4645 53.4426 79.6045 53.6026C79.7512 53.7626 79.9278 53.8859 80.1345 53.9726C80.3478 54.0526 80.6445 54.1459 81.0245 54.2526C81.4845 54.3792 81.8545 54.5059 82.1345 54.6326C82.4145 54.7526 82.6545 54.9426 82.8545 55.2026C83.0545 55.4559 83.1545 55.8026 83.1545 56.2426C83.1545 56.5826 83.0645 56.9026 82.8845 57.2026C82.7045 57.5026 82.4378 57.7459 82.0845 57.9326C81.7312 58.1192 81.3145 58.2126 80.8345 58.2126ZM89.8636 51.1726V58.1426H88.9536V54.9826H85.4036V58.1426H84.4936V51.1726H85.4036V54.2326H88.9536V51.1726H89.8636ZM94.9075 54.5526C95.1608 54.5926 95.3908 54.6959 95.5975 54.8626C95.8108 55.0292 95.9775 55.2359 96.0975 55.4826C96.2241 55.7292 96.2875 55.9926 96.2875 56.2726C96.2875 56.6259 96.1975 56.9459 96.0175 57.2326C95.8375 57.5126 95.5741 57.7359 95.2275 57.9026C94.8875 58.0626 94.4841 58.1426 94.0175 58.1426H91.4175V51.1726H93.9175C94.3908 51.1726 94.7941 51.2526 95.1275 51.4126C95.4608 51.5659 95.7108 51.7759 95.8775 52.0426C96.0441 52.3092 96.1275 52.6092 96.1275 52.9426C96.1275 53.3559 96.0141 53.6992 95.7875 53.9726C95.5675 54.2392 95.2741 54.4326 94.9075 54.5526ZM92.3275 54.1826H93.8575C94.2841 54.1826 94.6141 54.0826 94.8475 53.8826C95.0808 53.6826 95.1975 53.4059 95.1975 53.0526C95.1975 52.6992 95.0808 52.4226 94.8475 52.2226C94.6141 52.0226 94.2775 51.9226 93.8375 51.9226H92.3275V54.1826ZM93.9375 57.3926C94.3908 57.3926 94.7441 57.2859 94.9975 57.0726C95.2508 56.8592 95.3775 56.5626 95.3775 56.1826C95.3775 55.7959 95.2441 55.4926 94.9775 55.2726C94.7108 55.0459 94.3541 54.9326 93.9075 54.9326H92.3275V57.3926H93.9375ZM100.71 58.2126C100.064 58.2126 99.4736 58.0626 98.9403 57.7626C98.4069 57.4559 97.9836 57.0326 97.6703 56.4926C97.3636 55.9459 97.2103 55.3326 97.2103 54.6526C97.2103 53.9726 97.3636 53.3626 97.6703 52.8226C97.9836 52.2759 98.4069 51.8526 98.9403 51.5526C99.4736 51.2459 100.064 51.0926 100.71 51.0926C101.364 51.0926 101.957 51.2459 102.49 51.5526C103.024 51.8526 103.444 52.2726 103.75 52.8126C104.057 53.3526 104.21 53.9659 104.21 54.6526C104.21 55.3392 104.057 55.9526 103.75 56.4926C103.444 57.0326 103.024 57.4559 102.49 57.7626C101.957 58.0626 101.364 58.2126 100.71 58.2126ZM100.71 57.4226C101.197 57.4226 101.634 57.3092 102.02 57.0826C102.414 56.8559 102.72 56.5326 102.94 56.1126C103.167 55.6926 103.28 55.2059 103.28 54.6526C103.28 54.0926 103.167 53.6059 102.94 53.1926C102.72 52.7726 102.417 52.4492 102.03 52.2226C101.644 51.9959 101.204 51.8826 100.71 51.8826C100.217 51.8826 99.7769 51.9959 99.3903 52.2226C99.0036 52.4492 98.6969 52.7726 98.4703 53.1926C98.2503 53.6059 98.1403 54.0926 98.1403 54.6526C98.1403 55.2059 98.2503 55.6926 98.4703 56.1126C98.6969 56.5326 99.0036 56.8559 99.3903 57.0826C99.7836 57.3092 100.224 57.4226 100.71 57.4226ZM109.532 56.5926H106.492L105.932 58.1426H104.972L107.492 51.2126H108.542L111.052 58.1426H110.092L109.532 56.5926ZM109.272 55.8526L108.012 52.3326L106.752 55.8526H109.272ZM115.82 58.1426L114.16 55.2926H113.06V58.1426H112.15V51.1726H114.4C114.927 51.1726 115.37 51.2626 115.73 51.4426C116.097 51.6226 116.37 51.8659 116.55 52.1726C116.73 52.4792 116.82 52.8292 116.82 53.2226C116.82 53.7026 116.68 54.1259 116.4 54.4926C116.127 54.8592 115.713 55.1026 115.16 55.2226L116.91 58.1426H115.82ZM113.06 54.5626H114.4C114.893 54.5626 115.263 54.4426 115.51 54.2026C115.757 53.9559 115.88 53.6292 115.88 53.2226C115.88 52.8092 115.757 52.4892 115.51 52.2626C115.27 52.0359 114.9 51.9226 114.4 51.9226H113.06V54.5626ZM120.404 51.1726C121.164 51.1726 121.821 51.3159 122.374 51.6026C122.934 51.8826 123.361 52.2859 123.654 52.8126C123.954 53.3392 124.104 53.9592 124.104 54.6726C124.104 55.3859 123.954 56.0059 123.654 56.5326C123.361 57.0526 122.934 57.4526 122.374 57.7326C121.821 58.0059 121.164 58.1426 120.404 58.1426H118.234V51.1726H120.404ZM120.404 57.3926C121.304 57.3926 121.991 57.1559 122.464 56.6826C122.937 56.2026 123.174 55.5326 123.174 54.6726C123.174 53.8059 122.934 53.1292 122.454 52.6426C121.981 52.1559 121.297 51.9126 120.404 51.9126H119.144V57.3926H120.404Z" fill="white"/>
<defs>
<clipPath id="clip0_0_247">
<rect width="139.835" height="49.1427" fill="white"/>
</clipPath>
</defs>
</svg>
